<svg width="24" height="24" viewBox="0 0 24 24" fill="none" xmlns="http://www.w3.org/2000/svg">
<path d="M18.3999 20.2909L13.632 7.27272L12.4059 10.5628L14.5583 16.5091L15.9272 20.2909H18.3999Z" fill="#101011"/>
<path d="M11.4909 13.0182L8.1454 3.78181H5.7454L10.2572 16.5091L11.4909 13.0182Z" fill="#101011"/>
<path d="M4.50903 3.78181H5.7454M9.30903 3.78181H8.1454M8.1454 3.78181L11.4909 13.0182M8.1454 3.78181H5.7454M11.4909 13.0182C11.4909 13.0182 11.8576 12.0342 12.4059 10.5628M11.4909 13.0182L10.2572 16.5091M15.8545 1.30908C15.1877 3.09816 14.3748 5.2797 13.632 7.27272M14.8363 20.2909H15.9272M19.5636 20.2909H18.3999M18.3999 20.2909L13.632 7.27272M18.3999 20.2909H15.9272M13.632 7.27272C13.1813 8.4821 12.7565 9.62207 12.4059 10.5628M13.632 7.27272L12.4059 10.5628M15.9272 20.2909L14.5583 16.5091M12.4059 10.5628L14.5583 16.5091M8.07267 22.6909L10.2572 16.5091M10.2572 16.5091H14.5583M10.2572 16.5091L5.7454 3.78181" stroke="#101011" stroke-width="0.290909" stroke-linecap="round"/>
</svg>
