<svg width="63" height="65" fill="none" xmlns="http://www.w3.org/2000/svg"><path fill-rule="evenodd" clip-rule="evenodd" d="M15.25 30.417h-.232a.891.891 0 01-.65-.278 3.648 3.648 0 01-.512-.65 3.419 3.419 0 01-.279-.79 4.31 4.31 0 01-.092-.837V4.214l16.818 26.668h5.064v-.465h-.232a.891.891 0 01-.65-.278 2.48 2.48 0 01-.465-.65 9.294 9.294 0 01-.325-.837 3.65 3.65 0 01-.093-.79V16.247l1.951-1.998 9.013 13.613a11.57 11.57 0 001.069 1.394c.372.372.79.681 1.254.93a5.902 5.902 0 001.627.557c.65.093 1.44.139 2.369.139H52v-.465c-.465 0-.93-.123-1.394-.371a8.935 8.935 0 01-1.208-.93c-.34-.34-.635-.665-.883-.975-.247-.31-.387-.496-.418-.558L37.83 12.02l9.756-9.71a9.23 9.23 0 011.394-1.162c.465-.31.914-.464 1.348-.464h.232V.218h-5.668v.465h.232c.372 0 .557.248.557.743 0 .279-.092.527-.278.744L33.602 13.878V3.098c0-.216.03-.464.093-.743.093-.278.201-.542.325-.79.155-.247.325-.449.511-.603a.891.891 0 01.65-.28h.233V.219H28.77v.465h.232c.217 0 .418.093.604.279.186.154.34.356.465.604.155.247.263.51.325.79.062.278.093.526.093.743v22.01L14.693.22H10v.464h.232c.31 0 .573.093.79.279.217.154.387.356.511.604.124.247.202.51.232.79.062.278.093.526.093.743v24.763c0 .248-.046.527-.139.836a3.414 3.414 0 01-.279.79 2.069 2.069 0 01-.51.65c-.187.186-.388.28-.605.28h-.232v.464h5.157v-.465z" fill="#101011"/><path d="M9.25 51.15c0 .433-.108.833-.325 1.2a3.309 3.309 0 01-.9.975 4.75 4.75 0 01-1.3.65c-.5.15-1.042.225-1.625.225-.717 0-1.3-.092-1.75-.275-.45-.2-.833-.4-1.15-.6A5.513 5.513 0 001.6 53a1.23 1.23 0 00-.6-.15v-1.9h.25c.05.233.192.492.425.775.25.267.542.517.875.75a6.6 6.6 0 001.125.6c.417.15.833.225 1.25.225.3 0 .608-.033.925-.1.317-.067.6-.175.85-.325.267-.15.483-.333.65-.55.183-.233.275-.508.275-.825 0-.317-.092-.592-.275-.825a2.47 2.47 0 00-.7-.6 4.823 4.823 0 00-.975-.475 28.656 28.656 0 00-1.1-.375 24.85 24.85 0 01-1.325-.45 7.005 7.005 0 01-1.175-.575 3.09 3.09 0 01-.85-.825C1.008 47.042.9 46.65.9 46.2c0-.383.067-.75.2-1.1.15-.35.383-.65.7-.9.333-.267.758-.475 1.275-.625.517-.167 1.142-.25 1.875-.25.65 0 1.15.058 1.5.175.367.1.667.208.9.325.15.083.3.15.45.2.15.033.317.05.5.05v1.75h-.2c-.3-.55-.758-.967-1.375-1.25a4.506 4.506 0 00-1.9-.425c-.417 0-.775.058-1.075.175-.3.1-.55.233-.75.4-.183.15-.325.325-.425.525-.083.2-.125.4-.125.6 0 .283.075.525.225.725.167.2.383.375.65.525.283.15.592.292.925.425.35.133.717.258 1.1.375.467.15.933.317 1.4.5.467.167.883.375 1.25.625s.667.55.9.9c.233.333.35.742.35 1.225zm4.603-6.8v6.025a25 25 0 00.025 1.175c.017.35.059.642.125.875.067.233.167.417.3.55.134.117.317.175.55.175.35 0 .675-.167.975-.5.317-.333.517-.733.6-1.2h.225v1.825c-.15 0-.275.05-.375.15a3.118 3.118 0 01-.575.375c-.233.133-.591.2-1.075.2-.6 0-1.066-.117-1.4-.35a1.989 1.989 0 01-.725-.925 4.33 4.33 0 01-.275-1.275 40.091 40.091 0 01-.025-1.425V44.35h-1.4v-.85h1.4v-2.225a2.29 2.29 0 00-.125-.775c-.066-.25-.308-.383-.725-.4v-.25l2.5-.8v4.45h2.8v.85h-2.8zm14.58 8.025c0 .117.016.258.05.425.032.15.074.3.124.45.067.133.15.25.25.35.1.1.217.15.35.15V54h-2.425v-1.375c-.25.367-.616.725-1.1 1.075-.483.35-1.108.525-1.875.525-.966 0-1.733-.167-2.3-.5-.567-.333-1-.758-1.3-1.275a4.551 4.551 0 01-.575-1.675 12.935 12.935 0 01-.125-1.725v-3.575c0-.15-.008-.292-.025-.425a.792.792 0 00-.1-.4.57.57 0 00-.25-.275c-.117-.083-.283-.125-.5-.125v-.225l2.525-.8V49.6c0 1.267.275 2.2.825 2.8.55.6 1.225.9 2.025.9a2.35 2.35 0 001.15-.275c.35-.2.642-.433.875-.7.25-.267.433-.542.55-.825.133-.283.2-.517.2-.7v-5.325c0-.15-.008-.292-.025-.425a.792.792 0 00-.1-.4.57.57 0 00-.25-.275c-.116-.083-.283-.125-.5-.125v-.225l2.525-.8v9.15zM39.592 54v-1.1c-.284.317-.667.608-1.15.875-.467.267-1.059.4-1.776.4-.883 0-1.658-.15-2.325-.45a5.036 5.036 0 01-1.624-1.225 5.08 5.08 0 01-.976-1.7c-.2-.65-.3-1.317-.3-2 0-.667.109-1.325.325-1.975a5.262 5.262 0 01.976-1.775 4.873 4.873 0 011.624-1.25c.65-.317 1.4-.475 2.25-.475.567 0 1.126.108 1.675.325.55.2.984.467 1.3.8v-4.875c0-.283-.041-.55-.124-.8-.084-.25-.326-.383-.726-.4v-.25l2.5-.775v15.025c0 .133.017.283.05.45.034.15.084.292.15.425.067.133.15.25.25.35.1.1.217.15.35.15V54h-2.45zm-2.75-.65c.35 0 .691-.067 1.024-.2a3.19 3.19 0 00.876-.575c.25-.25.45-.533.6-.85a2.38 2.38 0 00.25-1.075v-3.425c0-.467-.1-.883-.3-1.25a3.39 3.39 0 00-.75-.975 3.077 3.077 0 00-1-.6 2.592 2.592 0 00-1.026-.225c-.55 0-1.041.133-1.475.4-.433.25-.8.583-1.1 1-.3.4-.525.858-.675 1.375-.15.5-.225 1-.225 1.5 0 .583.084 1.167.25 1.75.167.567.409 1.083.725 1.55.334.45.734.825 1.2 1.125.467.3 1.009.458 1.626.475zm7.967.65v-.25a.48.48 0 00.35-.15c.1-.1.183-.217.25-.35.067-.133.117-.275.15-.425a2.32 2.32 0 00.05-.45V45.45c0-.283-.042-.55-.125-.8-.084-.267-.325-.408-.725-.425V44l2.5-.8v9.175c0 .133.017.283.05.45.033.15.083.292.15.425.066.133.15.25.25.35.1.1.216.15.35.15V54h-3.25zm.125-13.2c0-.333.108-.617.325-.85.233-.233.517-.35.85-.35.333 0 .617.117.85.35.233.233.35.517.35.85 0 .333-.117.608-.35.825a1.204 1.204 0 01-.85.325 1.2 1.2 0 01-.85-.325 1.118 1.118 0 01-.325-.825zm11.05 13.375c-.834 0-1.584-.133-2.25-.4a5.616 5.616 0 01-1.726-1.125 5.334 5.334 0 01-1.1-1.7 5.87 5.87 0 01-.375-2.125c0-.817.142-1.558.425-2.225a5.136 5.136 0 011.175-1.75 5.288 5.288 0 011.775-1.125 6.067 6.067 0 012.225-.4c.8 0 1.534.133 2.2.4.667.25 1.242.608 1.725 1.075a4.864 4.864 0 011.125 1.675c.267.633.4 1.333.4 2.1 0 .717-.125 1.417-.375 2.1a4.98 4.98 0 01-1.075 1.775 5.22 5.22 0 01-1.75 1.25c-.683.317-1.483.475-2.4.475zm-.15-10.025c-.6.033-1.134.183-1.6.45-.45.25-.834.583-1.15 1-.3.4-.534.858-.7 1.375a5.622 5.622 0 00-.226 1.575c0 .617.092 1.217.275 1.8.2.567.475 1.075.825 1.525.367.45.8.808 1.3 1.075a3.5 3.5 0 001.675.4c.617 0 1.159-.133 1.625-.4a3.776 3.776 0 001.2-1.025c.317-.433.55-.917.7-1.45a5.34 5.34 0 00.25-1.6c0-.55-.083-1.1-.25-1.65a4.55 4.55 0 00-.775-1.525 3.945 3.945 0 00-1.325-1.125c-.516-.283-1.125-.425-1.825-.425z" fill="#101011"/></svg>