<svg width="63" height="65" viewBox="0 0 63 65" fill="none" xmlns="http://www.w3.org/2000/svg">
<path fill-rule="evenodd" clip-rule="evenodd" d="M15.25 30.4174H15.0177C14.7699 30.4174 14.5531 30.3245 14.3673 30.1386C14.1814 29.9528 14.0111 29.736 13.8562 29.4882C13.7323 29.2404 13.6394 28.9771 13.5774 28.6984C13.5155 28.3886 13.4845 28.1099 13.4845 27.8621V4.21384L30.3031 30.882H30.6422H33.1836H35.3673V30.4174H35.135C34.8872 30.4174 34.6704 30.3245 34.4845 30.1386C34.2987 29.9528 34.1438 29.736 34.0199 29.4882C33.896 29.2094 33.7876 28.9307 33.6947 28.6519C33.6328 28.3731 33.6018 28.1099 33.6018 27.8621V16.247L35.5531 14.2492L44.5664 27.8621C44.9381 28.4196 45.2943 28.8842 45.635 29.2559C46.0067 29.6276 46.4248 29.9373 46.8894 30.1851C47.354 30.4329 47.896 30.6187 48.5155 30.7426C49.1659 30.8355 49.9558 30.882 50.885 30.882H52V30.4174C51.5354 30.4174 51.0708 30.2935 50.6062 30.0457C50.1726 29.7669 49.7699 29.4572 49.3982 29.1165C49.0575 28.7758 48.7633 28.4506 48.5155 28.1408C48.2677 27.8311 48.1283 27.6453 48.0974 27.5833L37.8297 12.0191L47.5863 2.30897C48.0509 1.84437 48.5155 1.4572 48.9801 1.14746C49.4447 0.83773 49.8938 0.682863 50.3275 0.682863H50.5598V0.218262H44.8916V0.682863H45.1239C45.4956 0.682863 45.6814 0.930651 45.6814 1.42623C45.6814 1.70499 45.5885 1.95278 45.4027 2.16959L33.6018 13.8776V3.09879C33.6018 2.88198 33.6328 2.63419 33.6947 2.35543C33.7876 2.07667 33.896 1.81339 34.0199 1.56561C34.1748 1.31782 34.3451 1.11649 34.531 0.961623C34.7168 0.775783 34.9336 0.682863 35.1814 0.682863H35.4137V0.218262H34.9491H29.7456H28.7699V0.682863H29.0022C29.219 0.682863 29.4204 0.775783 29.6062 0.961623C29.7921 1.11649 29.9469 1.31782 30.0708 1.56561C30.2257 1.81339 30.3341 2.07667 30.396 2.35543C30.458 2.63419 30.489 2.88198 30.489 3.09879V25.1097L14.6925 0.218262H10V0.682863H10.2323C10.542 0.682863 10.8053 0.775783 11.0221 0.961623C11.2389 1.11649 11.4093 1.31782 11.5332 1.56561C11.6571 1.81339 11.7345 2.07667 11.7655 2.35543C11.8274 2.63419 11.8584 2.88198 11.8584 3.09879V27.8621C11.8584 28.1099 11.8119 28.3886 11.719 28.6984C11.6571 28.9771 11.5642 29.2404 11.4403 29.4882C11.3164 29.736 11.146 29.9528 10.9292 30.1386C10.7434 30.3245 10.542 30.4174 10.3252 30.4174H10.0929V30.882H15.25V30.4174Z" fill="#101011"/>
<path d="M9.2499 51.15C9.2499 51.5833 9.14157 51.9833 8.9249 52.35C8.70823 52.7167 8.40823 53.0417 8.0249 53.325C7.65823 53.5917 7.2249 53.8083 6.7249 53.975C6.2249 54.125 5.68323 54.2 5.0999 54.2C4.38323 54.2 3.7999 54.1083 3.3499 53.925C2.8999 53.725 2.51657 53.525 2.1999 53.325C1.98323 53.1917 1.78323 53.0833 1.5999 53C1.41657 52.9 1.21657 52.85 0.999902 52.85V50.95H1.2499C1.2999 51.1833 1.44157 51.4417 1.6749 51.725C1.9249 51.9917 2.21657 52.2417 2.5499 52.475C2.8999 52.7083 3.2749 52.9083 3.6749 53.075C4.09157 53.225 4.50823 53.3 4.9249 53.3C5.2249 53.3 5.53323 53.2667 5.8499 53.2C6.16657 53.1333 6.4499 53.025 6.6999 52.875C6.96657 52.725 7.18323 52.5417 7.3499 52.325C7.53323 52.0917 7.6249 51.8167 7.6249 51.5C7.6249 51.1833 7.53323 50.9083 7.3499 50.675C7.16657 50.4417 6.93323 50.2417 6.6499 50.075C6.36657 49.8917 6.04157 49.7333 5.6749 49.6C5.30823 49.4667 4.94157 49.3417 4.5749 49.225C4.14157 49.0917 3.6999 48.9417 3.2499 48.775C2.81657 48.6083 2.4249 48.4167 2.0749 48.2C1.7249 47.9667 1.44157 47.6917 1.2249 47.375C1.00823 47.0417 0.899902 46.65 0.899902 46.2C0.899902 45.8167 0.966569 45.45 1.0999 45.1C1.2499 44.75 1.48323 44.45 1.7999 44.2C2.13323 43.9333 2.55823 43.725 3.0749 43.575C3.59157 43.4083 4.21657 43.325 4.9499 43.325C5.5999 43.325 6.0999 43.3833 6.4499 43.5C6.81657 43.6 7.11657 43.7083 7.3499 43.825C7.4999 43.9083 7.6499 43.975 7.7999 44.025C7.9499 44.0583 8.11657 44.075 8.2999 44.075V45.825H8.0999C7.7999 45.275 7.34157 44.8583 6.7249 44.575C6.10823 44.2917 5.4749 44.15 4.8249 44.15C4.40823 44.15 4.0499 44.2083 3.7499 44.325C3.4499 44.425 3.1999 44.5583 2.9999 44.725C2.81657 44.875 2.6749 45.05 2.5749 45.25C2.49157 45.45 2.4499 45.65 2.4499 45.85C2.4499 46.1333 2.5249 46.375 2.6749 46.575C2.84157 46.775 3.05823 46.95 3.3249 47.1C3.60823 47.25 3.91657 47.3917 4.2499 47.525C4.5999 47.6583 4.96657 47.7833 5.3499 47.9C5.81657 48.05 6.28323 48.2167 6.7499 48.4C7.21657 48.5667 7.63323 48.775 7.9999 49.025C8.36657 49.275 8.66657 49.575 8.8999 49.925C9.13323 50.2583 9.2499 50.6667 9.2499 51.15ZM13.8532 44.35V50.375C13.8532 50.8083 13.8616 51.2 13.8782 51.55C13.8949 51.9 13.9366 52.1917 14.0032 52.425C14.0699 52.6583 14.1699 52.8417 14.3032 52.975C14.4366 53.0917 14.6199 53.15 14.8532 53.15C15.2032 53.15 15.5282 52.9833 15.8282 52.65C16.1449 52.3167 16.3449 51.9167 16.4282 51.45H16.6532V53.275C16.5032 53.275 16.3782 53.325 16.2782 53.425C16.1449 53.5417 15.9532 53.6667 15.7032 53.8C15.4699 53.9333 15.1116 54 14.6282 54C14.0282 54 13.5616 53.8833 13.2282 53.65C12.8949 53.4167 12.6532 53.1083 12.5032 52.725C12.3532 52.3417 12.2616 51.9167 12.2282 51.45C12.2116 50.9833 12.2032 50.5083 12.2032 50.025V44.35H10.8032V43.5H12.2032V41.275C12.2032 40.9917 12.1616 40.7333 12.0782 40.5C12.0116 40.25 11.7699 40.1167 11.3532 40.1V39.85L13.8532 39.05V43.5H16.6532V44.35H13.8532ZM28.4321 52.375C28.4321 52.4917 28.4488 52.6333 28.4821 52.8C28.5155 52.95 28.5571 53.1 28.6071 53.25C28.6738 53.3833 28.7571 53.5 28.8571 53.6C28.9571 53.7 29.0738 53.75 29.2071 53.75V54H26.7821V52.625C26.5321 52.9917 26.1655 53.35 25.6821 53.7C25.1988 54.05 24.5738 54.225 23.8071 54.225C22.8405 54.225 22.0738 54.0583 21.5071 53.725C20.9405 53.3917 20.5071 52.9667 20.2071 52.45C19.9071 51.9333 19.7155 51.375 19.6321 50.775C19.5488 50.1583 19.5071 49.5833 19.5071 49.05V45.475C19.5071 45.325 19.4988 45.1833 19.4821 45.05C19.4821 44.9 19.4488 44.7667 19.3821 44.65C19.3321 44.5333 19.2488 44.4417 19.1321 44.375C19.0155 44.2917 18.8488 44.25 18.6321 44.25V44.025L21.1571 43.225V49.6C21.1571 50.8667 21.4321 51.8 21.9821 52.4C22.5321 53 23.2071 53.3 24.0071 53.3C24.4405 53.3 24.8238 53.2083 25.1571 53.025C25.5071 52.825 25.7988 52.5917 26.0321 52.325C26.2821 52.0583 26.4655 51.7833 26.5821 51.5C26.7155 51.2167 26.7821 50.9833 26.7821 50.8V45.475C26.7821 45.325 26.7738 45.1833 26.7571 45.05C26.7571 44.9 26.7238 44.7667 26.6571 44.65C26.6071 44.5333 26.5238 44.4417 26.4071 44.375C26.2905 44.2917 26.1238 44.25 25.9071 44.25V44.025L28.4321 43.225V52.375ZM39.5925 54V52.9C39.3091 53.2167 38.9258 53.5083 38.4425 53.775C37.9758 54.0417 37.3841 54.175 36.6675 54.175C35.7841 54.175 35.0091 54.025 34.3425 53.725C33.6925 53.4083 33.1508 53 32.7175 52.5C32.2841 52 31.9591 51.4333 31.7425 50.8C31.5425 50.15 31.4425 49.4833 31.4425 48.8C31.4425 48.1333 31.5508 47.475 31.7675 46.825C31.9841 46.1583 32.3091 45.5667 32.7425 45.05C33.1758 44.5333 33.7175 44.1167 34.3675 43.8C35.0175 43.4833 35.7675 43.325 36.6175 43.325C37.1841 43.325 37.7425 43.4333 38.2925 43.65C38.8425 43.85 39.2758 44.1167 39.5925 44.45V39.575C39.5925 39.2917 39.5508 39.025 39.4675 38.775C39.3841 38.525 39.1425 38.3917 38.7425 38.375V38.125L41.2425 37.35V52.375C41.2425 52.5083 41.2591 52.6583 41.2925 52.825C41.3258 52.975 41.3758 53.1167 41.4425 53.25C41.5091 53.3833 41.5925 53.5 41.6925 53.6C41.7925 53.7 41.9091 53.75 42.0425 53.75V54H39.5925ZM36.8425 53.35C37.1925 53.35 37.5341 53.2833 37.8675 53.15C38.2008 53 38.4925 52.8083 38.7425 52.575C38.9925 52.325 39.1925 52.0417 39.3425 51.725C39.5091 51.3917 39.5925 51.0333 39.5925 50.65V47.225C39.5925 46.7583 39.4925 46.3417 39.2925 45.975C39.0925 45.5917 38.8425 45.2667 38.5425 45C38.2425 44.7333 37.9091 44.5333 37.5425 44.4C37.1925 44.25 36.8508 44.175 36.5175 44.175C35.9675 44.175 35.4758 44.3083 35.0425 44.575C34.6091 44.825 34.2425 45.1583 33.9425 45.575C33.6425 45.975 33.4175 46.4333 33.2675 46.95C33.1175 47.45 33.0425 47.95 33.0425 48.45C33.0425 49.0333 33.1258 49.6167 33.2925 50.2C33.4591 50.7667 33.7008 51.2833 34.0175 51.75C34.3508 52.2 34.7508 52.575 35.2175 52.875C35.6841 53.175 36.2258 53.3333 36.8425 53.35ZM44.8099 54V53.75C44.9432 53.75 45.0599 53.7 45.1599 53.6C45.2599 53.5 45.3432 53.3833 45.4099 53.25C45.4765 53.1167 45.5265 52.975 45.5599 52.825C45.5932 52.6583 45.6099 52.5083 45.6099 52.375V45.45C45.6099 45.1667 45.5682 44.9 45.4849 44.65C45.4015 44.3833 45.1599 44.2417 44.7599 44.225V44L47.2599 43.2V52.375C47.2599 52.5083 47.2765 52.6583 47.3099 52.825C47.3432 52.975 47.3932 53.1167 47.4599 53.25C47.5265 53.3833 47.6099 53.5 47.7099 53.6C47.8099 53.7 47.9265 53.75 48.0599 53.75V54H44.8099ZM44.9349 40.8C44.9349 40.4667 45.0432 40.1833 45.2599 39.95C45.4932 39.7167 45.7765 39.6 46.1099 39.6C46.4432 39.6 46.7265 39.7167 46.9599 39.95C47.1932 40.1833 47.3099 40.4667 47.3099 40.8C47.3099 41.1333 47.1932 41.4083 46.9599 41.625C46.7265 41.8417 46.4432 41.95 46.1099 41.95C45.7765 41.95 45.4932 41.8417 45.2599 41.625C45.0432 41.4083 44.9349 41.1333 44.9349 40.8ZM55.9843 54.175C55.1509 54.175 54.4009 54.0417 53.7343 53.775C53.0676 53.4917 52.4926 53.1167 52.0093 52.65C51.5426 52.1667 51.1759 51.6 50.9093 50.95C50.6593 50.3 50.5343 49.5917 50.5343 48.825C50.5343 48.0083 50.6759 47.2667 50.9593 46.6C51.2426 45.9167 51.6343 45.3333 52.1343 44.85C52.6343 44.3667 53.2259 43.9917 53.9093 43.725C54.5926 43.4583 55.3343 43.325 56.1343 43.325C56.9343 43.325 57.6676 43.4583 58.3343 43.725C59.0009 43.975 59.5759 44.3333 60.0593 44.8C60.5426 45.2667 60.9176 45.825 61.1843 46.475C61.4509 47.1083 61.5843 47.8083 61.5843 48.575C61.5843 49.2917 61.4593 49.9917 61.2093 50.675C60.9759 51.3417 60.6176 51.9333 60.1343 52.45C59.6676 52.9667 59.0843 53.3833 58.3843 53.7C57.7009 54.0167 56.9009 54.175 55.9843 54.175ZM55.8343 44.15C55.2343 44.1833 54.7009 44.3333 54.2343 44.6C53.7843 44.85 53.4009 45.1833 53.0843 45.6C52.7843 46 52.5509 46.4583 52.3843 46.975C52.2343 47.4917 52.1593 48.0167 52.1593 48.55C52.1593 49.1667 52.2509 49.7667 52.4343 50.35C52.6343 50.9167 52.9093 51.425 53.2593 51.875C53.6259 52.325 54.0593 52.6833 54.5593 52.95C55.0593 53.2167 55.6176 53.35 56.2343 53.35C56.8509 53.35 57.3926 53.2167 57.8593 52.95C58.3426 52.6833 58.7426 52.3417 59.0593 51.925C59.3759 51.4917 59.6093 51.0083 59.7593 50.475C59.9259 49.9417 60.0093 49.4083 60.0093 48.875C60.0093 48.325 59.9259 47.775 59.7593 47.225C59.5926 46.6583 59.3343 46.15 58.9843 45.7C58.6343 45.2333 58.1926 44.8583 57.6593 44.575C57.1426 44.2917 56.5343 44.15 55.8343 44.15Z" fill="#101011"/>
</svg>
